#Comment line ignore any data following # character 
#Hierarchical Translation and Rotation (.htr) file 
[Header]	
#Header keywords are followed by a single value 
FileType HTR		#Single word string
DataType HTRS		#Translation followed by rotation and scale data
FileVersion 1		#integer
NumSegments 84		#integer
NumFrames 2		#integer
DataFrameRate 30		#integer, data frame rate in this file
EulerRotationOrder ZYX
CalibrationUnits mm
RotationUnits Degrees
GlobalAxisofGravity Y
BoneLengthAxis Y
ScaleFactor 1.00
[SegmentNames&Hierarchy]
#CHILD	PARENT
MASTER GLOBAL
root MASTER
chest root
L_mid_tent01 root
R_mid_tent01 root
spine01 root
Bip01_Neck chest
L_humerus chest
R_humerus chest
weapon_bone chest
Bip01_Head Bip01_Neck
eye_left_bone Bip01_Head
eye_right_bone Bip01_Head
L_forearm L_humerus
L_front_hand L_forearm
L_weapon_bone L_forearm
L_front_hand01_01 L_front_hand
L_front_hand02_01 L_front_hand
L_front_hand03_01 L_front_hand
L_front_hand01_02 L_front_hand01_01
L_front_hand02_02 L_front_hand02_01
L_front_hand03_02 L_front_hand03_01
R_forearm R_humerus
R_front_hand R_forearm
R_weapon_bone R_forearm
R_front_hand01_01 R_front_hand
R_front_hand02_01 R_front_hand
R_front_hand03_01 R_front_hand
R_front_hand01_02 R_front_hand01_01
R_front_hand02_02 R_front_hand02_01
R_front_hand03_02 R_front_hand03_01
null_rope01_connect L_mid_tent01
Rope1_Seg01 null_rope01_connect
Rope1_Seg02 Rope1_Seg01
Rope1_Seg03 Rope1_Seg02
Rope1_Seg04 Rope1_Seg03
Rope1_Seg05 Rope1_Seg04
Rope1_Seg06 Rope1_Seg05
Rope1_Seg07 Rope1_Seg06
Rope1_Seg09 Rope1_Seg07
L_mid_hand01 Rope1_Seg09
L_mid_hand02 Rope1_Seg09
L_mid_hand03 Rope1_Seg09
null_rope02_connect R_mid_tent01
Rope2_Seg01 null_rope02_connect
Rope2_Seg02 Rope2_Seg01
Rope2_Seg03 Rope2_Seg02
Rope2_Seg04 Rope2_Seg03
Rope2_Seg05 Rope2_Seg04
Rope2_Seg06 Rope2_Seg05
Rope2_Seg07 Rope2_Seg06
Rope2_Seg09 Rope2_Seg07
R_mid_hand01 Rope2_Seg09
R_mid_hand02 Rope2_Seg09
R_mid_hand03 Rope2_Seg09
spine02 spine01
spine03 spine02
pelvis spine03
null_rope03_connect pelvis
null_rope04_connect pelvis
Rope3_Seg01 null_rope03_connect
Rope3_Seg02 Rope3_Seg01
Rope3_Seg03 Rope3_Seg02
Rope3_Seg04 Rope3_Seg03
Rope3_Seg05 Rope3_Seg04
Rope3_Seg06 Rope3_Seg05
Rope3_Seg07 Rope3_Seg06
Rope3_Seg08 Rope3_Seg07
Rope3_Seg09 Rope3_Seg08
R_rear_hand01 Rope3_Seg09
R_rear_hand02 Rope3_Seg09
R_rear_hand03 Rope3_Seg09
Rope4_Seg01 null_rope04_connect
Rope4_Seg02 Rope4_Seg01
Rope4_Seg03 Rope4_Seg02
Rope4_Seg04 Rope4_Seg03
Rope4_Seg05 Rope4_Seg04
Rope4_Seg06 Rope4_Seg05
Rope4_Seg07 Rope4_Seg06
Rope4_Seg08 Rope4_Seg07
Rope4_Seg09 Rope4_Seg08
L_rear_hand01 Rope4_Seg09
L_rear_hand02 Rope4_Seg09
L_rear_hand03 Rope4_Seg09
[BasePosition]
#SegmentName Tx, Ty, Tz, Rx, Ry, Rz, BoneLength
MASTER 0.000000 0.000000 0.000000 -90.000000 0.000000 0.000000 10.000000 
root 0.000000 0.000000 0.000000 0.000000 0.000000 0.000000 10.000000 
chest 0.000000 0.000000 0.000000 0.000000 0.000000 0.000000 10.000000 
L_mid_tent01 0.000000 0.000000 0.000000 0.000000 0.000000 0.000000 10.000000 
R_mid_tent01 0.000000 0.000000 0.000000 0.000000 0.000000 0.000000 10.000000 
spine01 0.000000 0.000000 0.000000 0.000000 0.000000 0.000000 10.000000 
Bip01_Neck 0.000000 0.000000 0.000000 0.000000 0.000000 0.000000 10.000000 
L_humerus 0.000000 0.000000 0.000000 0.000000 0.000000 0.000000 10.000000 
R_humerus 0.000000 0.000000 0.000000 0.000000 0.000000 0.000000 10.000000 
weapon_bone 0.000000 0.000000 0.000000 0.000000 0.000000 0.000000 10.000000 
Bip01_Head 0.000000 0.000000 0.000000 0.000000 0.000000 0.000000 10.000000 
eye_left_bone 0.000000 0.000000 0.000000 0.000000 0.000000 0.000000 10.000000 
eye_right_bone 0.000000 0.000000 0.000000 0.000000 0.000000 0.000000 10.000000 
L_forearm 0.000000 0.000000 0.000000 0.000000 0.000000 0.000000 10.000000 
L_front_hand 0.000000 0.000000 0.000000 0.000000 0.000000 0.000000 10.000000 
L_weapon_bone 0.000000 0.000000 0.000000 0.000000 0.000000 0.000000 10.000000 
L_front_hand01_01 0.000000 0.000000 0.000000 0.000000 0.000000 0.000000 10.000000 
L_front_hand02_01 0.000000 0.000000 0.000000 0.000000 0.000000 0.000000 10.000000 
L_front_hand03_01 0.000000 0.000000 0.000000 0.000000 0.000000 0.000000 10.000000 
L_front_hand01_02 0.000000 0.000000 0.000000 0.000000 0.000000 0.000000 10.000000 
L_front_hand02_02 0.000000 0.000000 0.000000 0.000000 0.000000 0.000000 10.000000 
L_front_hand03_02 0.000000 0.000000 0.000000 0.000000 0.000000 0.000000 10.000000 
R_forearm 0.000000 0.000000 0.000000 0.000000 0.000000 0.000000 10.000000 
R_front_hand 0.000000 0.000000 0.000000 0.000000 0.000000 0.000000 10.000000 
R_weapon_bone 0.000000 0.000000 0.000000 0.000000 0.000000 0.000000 10.000000 
R_front_hand01_01 0.000000 0.000000 0.000000 0.000000 0.000000 0.000000 10.000000 
R_front_hand02_01 0.000000 0.000000 0.000000 0.000000 0.000000 0.000000 10.000000 
R_front_hand03_01 0.000000 0.000000 0.000000 0.000000 0.000000 0.000000 10.000000 
R_front_hand01_02 0.000000 0.000000 0.000000 0.000000 0.000000 0.000000 10.000000 
R_front_hand02_02 0.000000 0.000000 0.000000 0.000000 0.000000 0.000000 10.000000 
R_front_hand03_02 0.000000 0.000000 0.000000 0.000000 0.000000 0.000000 10.000000 
null_rope01_connect 0.000000 0.000000 0.000000 0.000000 0.000000 0.000000 10.000000 
Rope1_Seg01 0.000000 0.000000 0.000000 0.000000 0.000000 0.000000 10.000000 
Rope1_Seg02 0.000000 0.000000 0.000000 0.000000 0.000000 0.000000 10.000000 
Rope1_Seg03 0.000000 0.000000 0.000000 0.000000 0.000000 0.000000 10.000000 
Rope1_Seg04 0.000000 0.000000 0.000000 0.000000 0.000000 0.000000 10.000000 
Rope1_Seg05 0.000000 0.000000 0.000000 0.000000 0.000000 0.000000 10.000000 
Rope1_Seg06 0.000000 0.000000 0.000000 0.000000 0.000000 0.000000 10.000000 
Rope1_Seg07 0.000000 0.000000 0.000000 0.000000 0.000000 0.000000 10.000000 
Rope1_Seg09 0.000000 0.000000 0.000000 0.000000 0.000000 0.000000 10.000000 
L_mid_hand01 0.000000 0.000000 0.000000 0.000000 0.000000 0.000000 10.000000 
L_mid_hand02 0.000000 0.000000 0.000000 0.000000 0.000000 0.000000 10.000000 
L_mid_hand03 0.000000 0.000000 0.000000 0.000000 0.000000 0.000000 10.000000 
null_rope02_connect 0.000000 0.000000 0.000000 0.000000 0.000000 0.000000 10.000000 
Rope2_Seg01 0.000000 0.000000 0.000000 0.000000 0.000000 0.000000 10.000000 
Rope2_Seg02 0.000000 0.000000 0.000000 0.000000 0.000000 0.000000 10.000000 
Rope2_Seg03 0.000000 0.000000 0.000000 0.000000 0.000000 0.000000 10.000000 
Rope2_Seg04 0.000000 0.000000 0.000000 0.000000 0.000000 0.000000 10.000000 
Rope2_Seg05 0.000000 0.000000 0.000000 0.000000 0.000000 0.000000 10.000000 
Rope2_Seg06 0.000000 0.000000 0.000000 0.000000 0.000000 0.000000 10.000000 
Rope2_Seg07 0.000000 0.000000 0.000000 0.000000 0.000000 0.000000 10.000000 
Rope2_Seg09 0.000000 0.000000 0.000000 0.000000 0.000000 0.000000 10.000000 
R_mid_hand01 0.000000 0.000000 0.000000 0.000000 0.000000 0.000000 10.000000 
R_mid_hand02 0.000000 0.000000 0.000000 0.000000 0.000000 0.000000 10.000000 
R_mid_hand03 0.000000 0.000000 0.000000 0.000000 0.000000 0.000000 10.000000 
spine02 0.000000 0.000000 0.000000 0.000000 0.000000 0.000000 10.000000 
spine03 0.000000 0.000000 0.000000 0.000000 0.000000 0.000000 10.000000 
pelvis 0.000000 0.000000 0.000000 0.000000 0.000000 0.000000 10.000000 
null_rope03_connect 0.000000 0.000000 0.000000 0.000000 0.000000 0.000000 10.000000 
null_rope04_connect 0.000000 0.000000 0.000000 0.000000 0.000000 0.000000 10.000000 
Rope3_Seg01 0.000000 0.000000 0.000000 0.000000 0.000000 0.000000 10.000000 
Rope3_Seg02 0.000000 0.000000 0.000000 0.000000 0.000000 0.000000 10.000000 
Rope3_Seg03 0.000000 0.000000 0.000000 0.000000 0.000000 0.000000 10.000000 
Rope3_Seg04 0.000000 0.000000 0.000000 0.000000 0.000000 0.000000 10.000000 
Rope3_Seg05 0.000000 0.000000 0.000000 0.000000 0.000000 0.000000 10.000000 
Rope3_Seg06 0.000000 0.000000 0.000000 0.000000 0.000000 0.000000 10.000000 
Rope3_Seg07 0.000000 0.000000 0.000000 0.000000 0.000000 0.000000 10.000000 
Rope3_Seg08 0.000000 0.000000 0.000000 0.000000 0.000000 0.000000 10.000000 
Rope3_Seg09 0.000000 0.000000 0.000000 0.000000 0.000000 0.000000 10.000000 
R_rear_hand01 0.000000 0.000000 0.000000 0.000000 0.000000 0.000000 10.000000 
R_rear_hand02 0.000000 0.000000 0.000000 0.000000 0.000000 0.000000 10.000000 
R_rear_hand03 0.000000 0.000000 0.000000 0.000000 0.000000 0.000000 10.000000 
Rope4_Seg01 0.000000 0.000000 0.000000 0.000000 0.000000 0.000000 10.000000 
Rope4_Seg02 0.000000 0.000000 0.000000 0.000000 0.000000 0.000000 10.000000 
Rope4_Seg03 0.000000 0.000000 0.000000 0.000000 0.000000 0.000000 10.000000 
Rope4_Seg04 0.000000 0.000000 0.000000 0.000000 0.000000 0.000000 10.000000 
Rope4_Seg05 0.000000 0.000000 0.000000 0.000000 0.000000 0.000000 10.000000 
Rope4_Seg06 0.000000 0.000000 0.000000 0.000000 0.000000 0.000000 10.000000 
Rope4_Seg07 0.000000 0.000000 0.000000 0.000000 0.000000 0.000000 10.000000 
Rope4_Seg08 0.000000 0.000000 0.000000 0.000000 0.000000 0.000000 10.000000 
Rope4_Seg09 0.000000 0.000000 0.000000 0.000000 0.000000 0.000000 10.000000 
L_rear_hand01 0.000000 0.000000 0.000000 0.000000 0.000000 0.000000 10.000000 
L_rear_hand02 0.000000 0.000000 0.000000 0.000000 0.000000 0.000000 10.000000 
L_rear_hand03 0.000000 0.000000 0.000000 0.000000 0.000000 0.000000 10.000000 
#Beginning of Data. Separated by tabs
#Fr	Tx	Ty	Tz	Rx	Ry	Rz	SF
[MASTER]
30 -1354.124390 163.131348 1515.048706 0.001660 0.001660 0.001660 2038.538086
31 -1354.124390 163.131348 1515.048706 0.001660 0.001660 0.001660 2038.538086
[root]
30 20.013123 -118.897354 462.015350 -166.446289 -12.904609 -69.401100 477.488556
31 20.013123 -118.897354 462.015350 -166.734482 -12.830389 -69.270935 477.488556
[chest]
30 -84.512650 -34.090519 0.000000 -40.559742 -26.174965 -177.581467 91.129311
31 -84.512650 -34.090519 0.000000 -41.017887 -26.452295 -177.176987 91.129311
[L_mid_tent01]
30 27.299166 22.179253 -249.918732 -7.465496 14.745173 50.279160 252.381729
31 27.299168 22.179256 -249.918732 -7.003121 14.788711 51.906937 252.381729
[R_mid_tent01]
30 23.228794 24.509907 226.238495 179.955338 -20.966862 29.693865 228.744751
31 23.228794 24.509907 226.238495 179.783218 -20.760008 30.136793 228.744751
[spine01]
30 -0.361383 -0.195265 0.000000 0.001955 0.001299 22.823290 0.410763
31 -0.361383 -0.195265 0.000000 0.001955 0.001299 22.793013 0.410763
[Bip01_Neck]
30 165.484543 71.581718 0.000119 176.643677 -1.657967 43.431911 180.302734
31 165.484543 71.581718 0.000119 176.643677 -1.657967 43.431911 180.302734
[L_humerus]
30 -13.983130 -135.272980 -120.471481 151.735641 72.091293 -116.389526 181.680161
31 -13.983130 -135.272980 -120.471481 151.829163 71.831078 -116.304230 181.680161
[R_humerus]
30 -13.983309 -135.273102 125.287651 -76.918205 -62.086449 176.232666 184.909012
31 -13.983309 -135.273102 125.287651 -79.495811 -63.163998 178.603485 184.909012
[weapon_bone]
30 235.964890 -300.705902 0.000000 0.000000 -89.951546 -128.212341 382.234833
31 235.964890 -300.705902 0.000000 0.000000 -89.951546 -128.212341 382.234833
[Bip01_Head]
30 213.405243 185.824280 10.374146 -6.417424 4.333907 -43.846733 283.160889
31 213.390305 185.865768 9.837797 -4.906073 4.715192 -43.845978 283.157715
[eye_left_bone]
30 -24.626970 125.451866 -64.772606 0.000000 -90.000000 -99.840431 143.318359
31 -24.626970 125.451866 -64.772606 0.000000 -90.000000 -99.840431 143.318359
[eye_right_bone]
30 -24.626970 125.451866 64.327362 0.000000 -89.965736 80.156380 143.117676
31 -24.626970 125.451866 64.327362 0.000000 -89.965736 80.156380 143.117676
[L_forearm]
30 322.776093 0.000000 -0.000119 0.000216 -0.002337 -100.578049 322.776093
31 322.776093 0.000000 -0.000119 0.000223 -0.002337 -100.921906 322.776093
[L_front_hand]
30 241.149185 -0.042021 -3.300071 -105.490540 -1.835781 -27.423635 241.171753
31 241.149185 -0.042021 -3.300071 -105.490540 -1.835780 -27.423639 241.171753
[L_weapon_bone]
30 156.183838 0.000000 0.000000 0.000014 0.000007 0.000001 156.183838
31 156.183838 0.000000 0.000000 0.000014 0.000007 0.000001 156.183838
[L_front_hand01_01]
30 86.095154 20.947098 -0.655860 -0.366594 -0.477154 75.385574 88.609184
31 86.095154 20.947098 -0.655860 -0.366594 -0.477154 75.385574 88.609184
[L_front_hand02_01]
30 86.935165 -11.437475 24.513514 154.399796 -59.883835 -61.369587 91.046425
31 86.935165 -11.437475 24.513514 154.399796 -59.883835 -61.369587 91.046425
[L_front_hand03_01]
30 86.637497 -14.123976 -20.424902 -153.913849 58.118122 -62.702866 90.126129
31 86.637497 -14.123976 -20.424902 -153.913849 58.118122 -62.702866 90.126129
[L_front_hand01_02]
30 71.020905 -0.000179 0.000030 0.000022 -0.002347 -91.065186 71.020905
31 71.020905 -0.000179 0.000030 0.000249 -0.002334 -102.169754 71.020905
[L_front_hand02_02]
30 71.020927 -0.000119 0.000060 0.000022 -0.002347 -91.065186 71.020927
31 71.020927 -0.000119 0.000060 0.000249 -0.002334 -102.169754 71.020927
[L_front_hand03_02]
30 71.020905 -0.000060 0.000060 0.000022 -0.002347 -91.065186 71.020905
31 71.020905 -0.000060 0.000060 0.000249 -0.002334 -102.169754 71.020905
[R_forearm]
30 322.776428 -0.000060 0.000030 0.211440 0.032103 -99.149574 322.776428
31 322.776428 -0.000060 0.000030 0.211344 0.032740 -99.494759 322.776428
[R_front_hand]
30 238.847015 -0.006795 2.210259 -2.635298 -10.645461 -26.312506 238.857239
31 238.847015 -0.006795 2.210259 -2.635298 -10.645461 -26.312506 238.857239
[R_weapon_bone]
30 155.664093 0.002503 -0.000030 0.003487 0.001180 -90.988930 155.664078
31 155.664093 0.002503 -0.000030 0.003487 0.001180 -90.988930 155.664078
[R_front_hand01_01]
30 87.624611 14.231146 22.918642 -154.633499 -59.950619 61.746044 91.683487
31 87.624611 14.231146 22.918642 -154.633499 -59.950619 61.746044 91.683487
[R_front_hand02_01]
30 89.356956 14.367283 -19.491137 154.602661 58.302849 63.744389 92.579636
31 89.356956 14.367283 -19.491137 154.602661 58.302849 63.744389 92.579636
[R_front_hand03_01]
30 87.286232 -22.307278 -0.143439 0.162155 -0.423168 -75.767921 90.091743
31 87.286232 -22.307278 -0.143439 0.162155 -0.423168 -75.767921 90.091743
[R_front_hand01_02]
30 71.020905 0.000060 0.000119 0.002323 -0.000334 106.381714 71.020905
31 71.020905 0.000060 0.000119 0.002323 -0.000334 106.381714 71.020905
[R_front_hand02_02]
30 71.020844 -0.000030 -0.000119 0.002323 -0.000334 106.381714 71.020836
31 71.020844 -0.000030 -0.000119 0.002323 -0.000334 106.381714 71.020836
[R_front_hand03_02]
30 71.020905 0.000000 0.000030 0.002323 -0.000334 106.381714 71.020905
31 71.020905 0.000000 0.000030 0.002323 -0.000334 106.381714 71.020905
[null_rope01_connect]
30 328.732483 0.000000 -0.000238 -163.708755 -3.298619 -121.828552 328.732483
31 328.732483 0.000000 -0.000238 -163.790573 -3.161881 -123.237595 328.732483
[Rope1_Seg01]
30 0.000126 -0.000070 0.000026 49.953838 -65.257423 58.067955 0.000147
31 0.000131 -0.000071 0.000022 54.162014 -64.934227 53.436783 0.000150
[Rope1_Seg02]
30 139.999863 -0.000179 0.000000 0.091139 6.157408 3.781307 139.999863
31 139.999863 -0.000179 0.000000 0.082929 6.311546 3.989409 139.999863
[Rope1_Seg03]
30 139.999924 0.000060 -0.000060 0.052682 10.774914 6.706820 139.999924
31 139.999924 0.000060 -0.000060 0.067389 11.139717 7.148557 139.999924
[Rope1_Seg04]
30 139.999924 -0.000060 -0.000119 -0.111342 24.045746 14.254309 139.999924
31 139.999924 -0.000060 -0.000119 0.135643 24.739790 15.403938 139.999924
[Rope1_Seg05]
30 139.999832 0.000119 -0.000060 -1.534895 20.336466 16.570625 139.999832
31 139.999832 0.000119 -0.000060 -1.378039 20.241051 16.673323 139.999832
[Rope1_Seg06]
30 139.999954 0.000119 -0.000060 -0.810113 2.642690 14.003467 139.999954
31 139.999954 0.000119 -0.000060 -0.759951 1.948505 12.822070 139.999954
[Rope1_Seg07]
30 139.999985 0.000060 0.000000 1.385530 5.952343 15.188652 139.999985
31 139.999985 0.000060 0.000000 1.303159 5.279046 15.142220 139.999985
[Rope1_Seg09]
30 121.602913 0.000119 -0.000089 -89.793175 -1.359789 0.847147 121.602913
31 121.602913 0.000119 -0.000089 -89.793175 -1.359789 0.847147 121.602913
[L_mid_hand01]
30 103.859421 1.038730 8.195221 130.544373 -67.584534 -38.866943 104.187431
31 103.859421 1.038730 8.195221 130.544373 -67.584534 -38.866943 104.187431
[L_mid_hand02]
30 105.572853 -4.139662 -10.864139 -168.923172 43.409309 -73.498886 106.211075
31 105.572853 -4.139662 -10.864139 -168.923172 43.409309 -73.498886 106.211075
[L_mid_hand03]
30 104.641464 17.579376 -3.913581 -6.012627 17.808174 74.893669 106.179977
31 104.641464 17.579376 -3.913581 -6.012627 17.808178 74.893677 106.179977
[null_rope02_connect]
30 328.732849 0.000179 -0.000119 -14.727509 19.080263 91.726608 328.732849
31 328.732849 0.000179 -0.000119 -14.478220 18.759022 92.212219 328.732849
[Rope2_Seg01]
30 0.000133 0.000146 -0.000126 76.739830 77.077827 12.751296 0.000235
31 0.000136 0.000147 -0.000131 78.374321 77.929970 14.323766 0.000239
[Rope2_Seg02]
30 139.999741 -0.000060 -0.000119 -0.977369 14.356277 -5.866467 139.999756
31 139.999741 -0.000060 -0.000119 -1.108112 14.585423 -5.547237 139.999756
[Rope2_Seg03]
30 140.000107 0.000030 0.000000 -14.413082 40.120358 -16.681009 140.000107
31 140.000107 0.000030 0.000000 -16.661831 39.946083 -14.388424 140.000107
[Rope2_Seg04]
30 139.999802 0.000000 -0.000060 -157.109772 39.915085 -9.408965 139.999802
31 139.999802 0.000000 -0.000060 -145.772842 38.755287 -5.543070 139.999802
[Rope2_Seg05]
30 139.999985 -0.000060 0.000119 -25.332869 8.515887 4.430497 139.999985
31 139.999985 -0.000060 0.000119 -33.260609 10.048472 5.033685 139.999985
[Rope2_Seg06]
30 139.999893 -0.000030 -0.000119 -28.192419 6.247295 5.226905 139.999893
31 139.999893 -0.000030 -0.000119 -26.541887 4.225108 5.842593 139.999893
[Rope2_Seg07]
30 139.999893 0.000060 -0.000060 -8.627209 -0.294341 2.915711 139.999893
31 139.999893 0.000060 -0.000060 -7.201635 -0.823784 2.794210 139.999893
[Rope2_Seg09]
30 121.338966 0.000089 -0.000060 33.793236 -1.359788 -0.847141 121.338966
31 121.338966 0.000089 -0.000060 33.793236 -1.359788 -0.847141 121.338966
[R_mid_hand01]
30 104.680779 11.144459 -10.335981 -18.585432 44.487873 67.094742 105.778534
31 104.680779 11.144459 -10.335981 -16.857140 45.048347 69.553452 105.778534
[R_mid_hand02]
30 104.070427 2.443552 8.231699 52.755077 -65.811348 35.278687 104.424065
31 104.070427 2.443552 8.231699 50.118153 -67.241348 38.150028 104.424065
[R_mid_hand03]
30 106.028137 -11.221827 -5.996406 -176.406250 15.411082 -73.996964 106.788818
31 106.028137 -11.221827 -5.996406 -176.912491 15.518663 -75.892738 106.788818
[spine02]
30 129.756927 0.001550 0.000119 -0.548290 -4.025590 -0.122587 129.756927
31 129.756927 0.001550 0.000119 -0.512705 -4.029548 -0.618715 129.756927
[spine03]
30 78.614044 0.081029 -4.898988 1.347222 4.056056 8.517704 78.766579
31 78.614044 0.081002 -4.898988 1.368966 4.049144 8.823666 78.766579
[pelvis]
30 169.435242 0.051022 0.000000 -0.007320 -0.191387 -2.026194 169.435257
31 169.435242 0.051022 0.000000 -0.010809 -0.191373 -1.417767 169.435257
[null_rope03_connect]
30 -1.257226 -2.466202 137.391083 -172.732178 -17.405195 -98.085052 137.418976
31 -1.257226 -2.466202 137.391083 -172.742096 -17.162991 -98.374832 137.418976
[null_rope04_connect]
30 -1.259640 -2.480268 -137.844437 -172.732178 -17.405195 -98.085052 137.872513
31 -1.259640 -2.480268 -137.844437 -172.742096 -17.162991 -98.374832 137.872513
[Rope3_Seg01]
30 0.000000 0.000000 0.000000 33.797913 34.794979 -51.960720 0.000000
31 0.000000 0.000000 0.000000 34.577602 35.685860 -51.520935 0.000000
[Rope3_Seg02]
30 139.999924 -0.000119 0.000060 3.720832 2.002951 -12.374856 139.999924
31 139.999924 -0.000119 0.000060 3.683704 1.951354 -11.854353 139.999924
[Rope3_Seg03]
30 139.999924 -0.000119 0.000119 1.435609 2.019539 -37.216991 139.999924
31 139.999924 -0.000119 0.000119 1.796872 2.073989 -36.523415 139.999924
[Rope3_Seg04]
30 139.999924 0.000119 0.000000 -18.141392 0.324779 -46.872898 139.999924
31 139.999924 0.000119 0.000000 -18.918684 0.524981 -49.065250 139.999924
[Rope3_Seg05]
30 139.999924 -0.000238 0.000060 -27.227819 13.958866 -18.416271 139.999924
31 139.999924 -0.000238 0.000060 -27.061781 14.178544 -18.090044 139.999924
[Rope3_Seg06]
30 139.999893 -0.000119 -0.000060 -12.263785 11.368425 -4.483053 139.999893
31 139.999893 -0.000119 -0.000060 -10.714479 9.884606 -3.994149 139.999893
[Rope3_Seg07]
30 139.999771 0.000060 -0.000119 -4.877554 5.719961 -1.679530 139.999771
31 139.999771 0.000060 -0.000119 -4.407414 4.999411 -1.627557 139.999771
[Rope3_Seg08]
30 139.999985 -0.000060 0.000000 -2.109118 3.160957 -0.645403 139.999985
31 139.999985 -0.000060 0.000000 -1.924370 2.775487 -0.673343 139.999985
[Rope3_Seg09]
30 90.185997 -0.000179 -0.000060 89.793228 -1.359877 -0.847183 90.185997
31 90.185997 -0.000179 -0.000060 89.793228 -1.359877 -0.847183 90.185997
[R_rear_hand01]
30 103.366196 -6.073594 -10.757982 173.857788 -15.303976 -73.582932 104.101845
31 103.366196 -6.073594 -10.757982 173.121597 -15.241879 -74.937782 104.101845
[R_rear_hand02]
30 100.509819 12.039542 -7.992327 -14.552657 36.319756 69.354675 101.543350
31 100.509819 12.039542 -7.992327 -13.326717 36.728550 71.413712 101.543350
[R_rear_hand03]
30 101.539970 5.215704 5.435467 73.490242 -69.598801 19.389946 101.819031
31 101.539970 5.215704 5.435467 72.062195 -71.230423 20.902857 101.819031
[Rope4_Seg01]
30 0.000010 0.000007 -0.000026 -131.951370 -34.453686 -51.902988 0.000029
31 0.000010 0.000005 -0.000022 -130.977448 -34.795708 -53.514542 0.000024
[Rope4_Seg02]
30 139.999985 0.000060 0.000119 -4.764767 17.282597 1.169775 139.999985
31 139.999985 0.000060 0.000119 -5.437222 16.150923 -0.120251 139.999985
[Rope4_Seg03]
30 139.999924 0.000000 -0.000238 -0.142013 33.768757 7.245945 139.999924
31 139.999924 0.000000 -0.000238 -2.072706 31.777578 3.809944 139.999924
[Rope4_Seg04]
30 139.999985 0.000000 0.000119 3.323591 27.402487 8.191325 139.999985
31 139.999985 0.000000 0.000119 2.969383 28.188677 6.059237 139.999985
[Rope4_Seg05]
30 139.999802 -0.000060 -0.000119 10.021946 23.631990 -1.370919 139.999802
31 139.999802 -0.000060 -0.000119 8.650676 24.168753 -0.369397 139.999802
[Rope4_Seg06]
30 139.999924 0.000000 0.000060 35.395592 26.766230 -10.096880 139.999924
31 139.999924 0.000000 0.000060 32.187225 27.576151 -7.239177 139.999924
[Rope4_Seg07]
30 139.999802 0.000000 0.000000 25.957327 8.301867 -11.258074 139.999802
31 139.999802 0.000000 0.000000 28.180717 9.848557 -10.050928 139.999802
[Rope4_Seg08]
30 139.999924 0.000000 0.000119 9.873609 1.184777 -6.666360 139.999924
31 139.999924 0.000000 0.000119 11.708881 1.848553 -6.495277 139.999924
[Rope4_Seg09]
30 90.185791 0.000060 0.000060 -135.617828 2.228885 0.850567 90.185791
31 90.185791 0.000060 0.000060 -135.617828 2.228885 0.850567 90.185791
[L_rear_hand01]
30 101.696655 -8.392275 -7.654577 -12.874829 -36.868488 107.832764 102.329041
31 101.696655 -8.392275 -7.654577 -12.874829 -36.868488 107.832764 102.329041
[L_rear_hand02]
30 102.726799 -1.568258 5.773216 71.484581 71.816628 158.486160 102.900848
31 102.726799 -1.568258 5.773216 71.484581 71.816628 158.486160 102.900848
[L_rear_hand03]
30 104.552910 9.721220 -10.420293 -177.714203 -24.565960 -106.089035 105.519653
31 104.552910 9.721220 -10.420293 -177.714203 -24.565960 -106.089035 105.519653
